<svg xmlns="http://www.w3.org/2000/svg" viewBox="0 0 83.78 15.68"><path fill="#ffffff" d="m24.84,10.28c.57,0,1.04-.2,1.39-.59h0c.35-.41.53-.94.53-1.56s-.18-1.14-.53-1.55c-.35-.4-.82-.6-1.38-.6h-.03c-.5,0-.98.23-1.31.61-.35.4-.53.91-.53,1.51,0,.64.18,1.17.52,1.57.35.4.8.61,1.34.61m7.98-5.6h0m-17.2,2.6h3.14v-.05c-.21-.83-.74-1.25-1.57-1.25-.19,0-.36.03-.53.09-.34.12-.62.34-.81.64-.1.15-.17.33-.22.52h-.01v.05m25.34,3.01c.61,0,1.1-.2,1.46-.59h0c.36-.39.54-.91.54-1.56s-.18-1.17-.54-1.56c-.37-.39-.87-.59-1.46-.59s-1.07.2-1.44.59c-.36.4-.55.91-.55,1.53,0,.67.18,1.2.54,1.59.37.39.85.59,1.46.59m-8.16,0c.61,0,1.1-.2,1.46-.59h0c.36-.39.54-.91.54-1.56s-.18-1.17-.54-1.56c-.37-.39-.87-.59-1.46-.59s-1.07.2-1.44.59c-.36.4-.55.91-.55,1.53,0,.67.18,1.2.54,1.59.37.39.85.59,1.46.59M28.13.87h-1.46c-.55,0-1,.45-1,1v1.99c-.36-.12-.73-.18-1.11-.18-1.15,0-2.17.45-2.94,1.31-.3.34-.54.7-.72,1.1-.18-.44-.42-.83-.72-1.16-.76-.83-1.78-1.25-3.02-1.25-1,0-1.86.28-2.56.83-.02-.06-.05-.12-.09-.18-.18-.29-.5-.47-.85-.47h-1.63c-.39,0-.75.23-.91.58l-.81,1.77-.82-1.78c-.16-.35-.52-.58-.91-.58h-1.63c-.11,0-.22.02-.33.06.21-.31.33-.69.33-1.1,0-.53-.2-1-.57-1.38-.37-.37-.85-.57-1.39-.57s-1,.2-1.38.57c-.07.06-.13.13-.19.21-.1-.45-.5-.78-.98-.78h-1.44C.45.86,0,1.31,0,1.86v9.52c0,.55.45,1,1,1h1.45c.4,0,.75-.24.91-.58.16.35.51.58.91.58h1.45c.55,0,1-.45,1-1v-4.7l2.67,5.54c.17.35.52.57.9.57h0c.38,0,.73-.22.9-.56l1.83-3.76c.06,1.13.45,2.11,1.14,2.85.77.83,1.84,1.26,3.08,1.26.41,0,.81-.05,1.18-.14s.74-.24,1.09-.45.66-.47.94-.79c.21-.23.41-.49.6-.78.16.3.35.58.57.84.78.87,1.8,1.33,2.98,1.33.55,0,1.07-.11,1.55-.34.15.09.33.15.52.15h1.46c.55,0,1.01-.45,1.01-1v-.69c.15.21.31.4.5.59.83.85,1.93,1.3,3.16,1.3s2.35-.44,3.2-1.28c.39-.38.69-.81.91-1.27.21.46.51.88.88,1.25.83.85,1.93,1.3,3.16,1.3s2.35-.44,3.2-1.28c.28-.27.51-.57.7-.88v.99c0,.55.45,1,1,1h1.45c.55,0,1-.45,1-1v-3.39c0-.74.17-.9.17-.91h0s.03-.01.11-.01h.08s.1.05.17.1c.17.12.37.19.58.19.08,0,.16,0,.24-.03.28-.07.52-.26.65-.52l.67-1.33c.24-.48.06-1.05-.4-1.32-.58-.33-1.16-.5-1.71-.5-.44,0-.86.09-1.2.27-.11-.04-.24-.07-.37-.07h-1.45c-.55,0-1,.45-1,1v.97c-.19-.31-.42-.61-.7-.88-.88-.85-1.94-1.28-3.16-1.29h0c-1.22,0-2.28.43-3.15,1.27-.38.36-.69.8-.91,1.27-.22-.46-.52-.88-.9-1.26-.88-.85-1.94-1.28-3.16-1.29h0c-1.22,0-2.28.43-3.15,1.27-.19.19-.37.39-.52.61V1.87c0-.55-.45-1-1-1h-.05ZM3.45,4.29v-.27s.07.09.11.13c-.04.04-.08.09-.11.13h0Zm67.06,5.88c1.52,0,2.66-1.24,2.66-2.89h0c0-1-.67-1.64-1.72-1.64-1.5,0-2.71,1.28-2.71,2.86,0,1.08.62,1.67,1.76,1.67M60.82.02h-4.09c-.47,0-.88.33-.98.79l-2.2,10.38c-.06.3,0,.6.2.84.19.23.48.37.78.37h1.54c.13,0,.26-.03.38-.07.12.05.25.07.38.07h2.53c1.39,0,2.62-.55,3.49-1.45l-.05.23c-.06.3,0,.6.2.84.19.23.48.37.78.37h1.54c.47,0,.88-.33.98-.79l.26-1.21c.33.77.87,1.26,1.35,1.55.86.54,1.85.65,2.52.65,1.69,0,3.29-.97,4.28-2.39.27.71.73,1.31,1.34,1.72-.06-.01-.12-.02-.18-.02-.37,0-.73.21-.9.56l-.65,1.33c-.12.25-.14.55-.03.81s.32.47.59.57l.11.04c.92.34,1.64.47,2.63.47,2.62,0,4.77-1.77,5.35-4.4l.75-3.52c.06-.28.06-.56.06-.76,0-2.16-1.5-3.68-3.67-3.77-.05,0-.11,0-.16,0-1.8,0-3.47.97-4.48,2.4-.55-1.4-1.91-2.34-3.64-2.39-.05,0-.1,0-.15,0-1.38,0-2.82.64-3.87,1.7-.04.05-.09.09-.13.14l.78-3.69c.06-.3-.01-.6-.2-.84-.19-.23-.48-.37-.78-.37h-1.54c-.47,0-.88.33-.98.79l-.36,1.71c-.28-1.63-1.71-2.66-3.79-2.66h0v.02Zm2.85,5.98c.12-.14.23-.28.33-.43l-.16.74c-.05-.11-.11-.21-.17-.31h0Z"/><path d="m2.45,1.87h-1.45v9.52h1.45V1.87Zm3.27,2.99h-1.45v6.53h1.45v-6.52h0Zm-.05-2.71c-.19-.19-.41-.28-.68-.28s-.49.1-.67.28c-.18.17-.28.41-.28.66,0,.27.1.5.28.69.19.19.41.28.68.28s.49-.09.67-.28c.19-.19.28-.41.28-.68s-.1-.49-.28-.67h0Zm7.99,2.71h-1.63l-1.72,3.75-1.73-3.75h-1.63l3.34,6.93s3.37-6.93,3.37-6.93Zm1.23,5.78c.58.62,1.38.94,2.34.94.34,0,.66-.04.95-.11s.56-.19.81-.34c.25-.15.49-.35.7-.59.21-.23.42-.51.61-.83l-1.23-.68c-.31.47-.58.81-.82.98-.25.19-.58.28-.96.28-.5,0-.91-.16-1.22-.48-.32-.32-.5-.77-.54-1.32v-.04h4.73v-.32c0-1.07-.27-1.92-.82-2.53-.56-.61-1.32-.92-2.28-.92s-1.72.32-2.29.94c-.57.64-.86,1.48-.86,2.51s.3,1.88.88,2.51h0Zm.74-3.41c.05-.19.12-.37.22-.52.19-.3.47-.52.81-.64.17-.06.34-.09.53-.09.83,0,1.36.42,1.57,1.25v.05h-3.14v-.05s.01,0,0,0h0Zm12.5,4.16V1.87h-1.46v3.81l-.06-.06c-.6-.62-1.29-.94-2.05-.94-.87,0-1.61.33-2.19.98s-.88,1.47-.88,2.44.3,1.83.88,2.5c.58.65,1.33.98,2.22.98.75,0,1.42-.29,2.01-.87l.06-.06v.74s1.47,0,1.47,0Zm-1.9-1.7c-.35.39-.82.59-1.39.59-.54,0-.99-.21-1.34-.61-.34-.4-.52-.93-.52-1.57,0-.6.18-1.11.53-1.51.33-.39.83-.62,1.34-.61.56,0,1.03.2,1.38.6.35.41.53.93.53,1.55s-.18,1.15-.53,1.55h0Zm6.59-5.01c-.97,0-1.79.33-2.47.99-.66.63-1.02,1.5-1.01,2.41,0,1,.33,1.84.99,2.49.66.67,1.49,1.01,2.46,1.01s1.83-.33,2.5-.99,1.01-1.48,1.01-2.46-.34-1.79-1.01-2.45c-.68-.66-1.51-1-2.48-1h0Zm1.46,5.02c-.36.39-.85.59-1.46.59s-1.09-.2-1.46-.59c-.36-.39-.54-.92-.54-1.59,0-.62.19-1.13.55-1.53.37-.39.85-.59,1.44-.59s1.09.2,1.46.59c.36.39.54.91.54,1.56s-.18,1.17-.54,1.56h.01Zm6.69-5.02c-.97,0-1.79.33-2.47.99-.66.63-1.02,1.5-1.01,2.41,0,1,.33,1.84.99,2.49.66.67,1.49,1.01,2.46,1.01s1.83-.33,2.5-.99,1.01-1.48,1.01-2.46-.34-1.79-1.01-2.45c-.68-.66-1.51-1-2.48-1h0Zm1.46,5.02c-.36.39-.85.59-1.46.59s-1.09-.2-1.46-.59c-.36-.39-.54-.92-.54-1.59,0-.62.19-1.13.55-1.53.37-.39.85-.59,1.44-.59s1.09.2,1.46.59c.36.39.54.91.54,1.56s-.18,1.17-.54,1.56h.01Zm6.14-3.62c.27,0,.55.1.83.3l.67-1.33c-.42-.24-.83-.37-1.21-.37-.29,0-.56.06-.77.17s-.46.31-.74.6l-.06.07v-.64h-1.45v6.53h1.45v-3.39c0-1.27.43-1.92,1.28-1.92h0s0-.02,0-.02Z"/><path fill="#0096ef" d="m67.49,1.18h-1.54l-2.17,10.21h1.54s2.17-10.21,2.17-10.21Zm4.19,3.06c-1.11,0-2.29.52-3.15,1.4-.85.86-1.31,1.97-1.29,3.12.01,1.07.41,1.85,1.19,2.33.71.44,1.55.5,2,.5,2.21,0,4.3-2.19,4.3-4.51,0-1.67-1.25-2.83-3.04-2.83h-.01Zm1.49,3.04c0,1.65-1.14,2.89-2.66,2.89-1.14,0-1.76-.59-1.76-1.67,0-1.58,1.21-2.86,2.71-2.86,1.05,0,1.72.64,1.72,1.63h0Zm6.78-3.04c-2.4,0-4.5,2.1-4.5,4.49,0,1.68,1.17,2.86,2.84,2.86.7,0,1.32-.22,1.89-.45l.05-.02.34-1.58-.2.1c-.5.25-1.14.54-1.72.54-1.05,0-1.74-.65-1.74-1.65,0-1.64,1.2-2.88,2.79-2.88.95,0,1.54.66,1.54,1.72,0,.24-.02.44-.05.61l-.71,3.34c-.24,1.15-1.33,1.96-2.64,1.96-.56,0-1.19-.11-1.88-.34l-.09-.03-.65,1.33.11.04c.81.3,1.41.41,2.29.41,2.17,0,3.89-1.42,4.37-3.61l.75-3.51c.04-.18.04-.38.04-.55,0-1.66-1.15-2.77-2.86-2.77h.03,0Zm-17.69,1.7c.94-.7,1.4-1.56,1.4-2.65,0-1.42-1.06-2.27-2.84-2.27h-4.09l-2.2,10.38h1.54l.31-1.46.65-3.07.31-1.47.62-2.92h2.64c.55,0,1.46.14,1.46,1.11,0,.48-.2.97-.53,1.3-.42.42-.99.51-1.38.51h-2.04l-.31,1.47h2.29c.67,0,1.46.19,1.46,1.11,0,.68-.29,1.27-.78,1.61-.33.23-.76.35-1.22.35h-2.41l-.31,1.46h2.53c2.12,0,3.79-1.62,3.79-3.7,0-.73-.31-1.34-.9-1.76,0,0,0,0,.01,0Z"/></svg>